<?xml version="1.0" standalone="no"?>
<!DOCTYPE svg PUBLIC "-//W3C//DTD SVG 20010904//EN"
 "http://www.w3.org/TR/2001/REC-SVG-20010904/DTD/svg10.dtd">
<svg version="1.0" xmlns="http://www.w3.org/2000/svg"
 width="300.000000pt" height="300.000000pt" viewBox="0 0 300.000000 300.000000"
 preserveAspectRatio="xMidYMid meet">
<metadata>
Created by potrace 1.11, written by Peter Selinger 2001-2013
</metadata>
<g transform="translate(0.000000,300.000000) scale(0.100000,-0.100000)"
fill="#000000" stroke="none">
<path d="M1435 2989 c-55 -4 -116 -10 -135 -13 -426 -78 -758 -363 -899 -771
-61 -175 -69 -261 -65 -715 1 -223 5 -421 8 -440 42 -258 116 -437 252 -606
181 -226 422 -368 709 -418 117 -21 336 -14 450 13 107 26 245 80 324 126 300
176 510 483 568 828 23 139 22 988 -1 1026 -2 3 -7 24 -10 45 -10 60 -63 214
-101 287 -64 125 -120 203 -215 300 -187 190 -443 313 -695 334 -39 4 -74 7
-80 9 -5 1 -55 -1 -110 -5z m247 -98 c318 -53 609 -263 761 -551 62 -119 111
-270 122 -380 10 -110 15 -194 11 -189 -2 2 -20 36 -41 74 -171 324 -584 524
-970 471 -97 -14 -275 -66 -275 -81 0 -2 19 3 43 11 94 34 293 48 417 30 139
-21 304 -89 425 -174 188 -134 302 -291 373 -512 l30 -95 -3 -220 c-4 -266
-21 -362 -94 -533 -66 -157 -212 -338 -351 -439 -457 -330 -1085 -255 -1446
172 -125 148 -217 344 -239 508 -3 18 -8 43 -11 57 -4 14 -9 212 -10 440 -4
452 1 517 52 675 165 513 673 824 1206 736z"/>
<path d="M1566 2451 c-19 -20 -20 -31 -5 -31 6 0 25 -16 43 -35 39 -41 79 -47
97 -13 10 19 8 25 -16 44 -15 12 -45 29 -66 37 -34 14 -39 13 -53 -2z"/>
<path d="M1736 2443 c20 -84 96 -137 128 -91 22 31 -2 70 -58 97 -63 29 -78
28 -70 -6z"/>
<path d="M1894 2436 c-7 -19 42 -89 77 -110 35 -21 63 -2 54 35 -6 25 -48 78
-63 80 -4 0 -19 3 -35 5 -18 3 -29 0 -33 -10z"/>
<path d="M1440 2430 c-10 -6 -8 -16 9 -44 13 -20 28 -37 34 -38 57 -7 67 -5
67 17 0 47 -72 89 -110 65z"/>
<path d="M2070 2389 c0 -82 77 -156 132 -128 11 6 15 17 12 35 -12 65 -47 101
-116 118 -26 6 -28 4 -28 -25z"/>
<path d="M1303 2375 c-11 -30 67 -78 105 -64 47 18 13 61 -60 74 -31 6 -39 4
-45 -10z"/>
<path d="M1205 2330 c-8 -13 11 -47 35 -60 12 -6 27 -7 43 -1 43 17 41 30 -8
51 -53 23 -61 24 -70 10z"/>
<path d="M2282 2328 c-16 -21 -31 -86 -26 -116 10 -53 67 -90 92 -59 16 20 23
84 11 114 -11 29 -47 73 -60 73 -3 0 -11 -6 -17 -12z"/>
<path d="M1127 2255 c18 -25 50 -31 88 -16 16 6 10 11 -30 24 -69 24 -80 23
-58 -8z"/>
<path d="M1554 2228 c-38 -9 -80 -19 -94 -22 -93 -15 -220 -68 -302 -124 -95
-65 -192 -196 -198 -267 -6 -60 1 -88 30 -117 27 -26 36 -30 68 -25 53 9 78
42 81 108 4 96 28 156 85 215 29 30 60 54 71 54 20 0 21 0 -53 -79 -103 -111
-86 -281 28 -281 26 0 80 48 80 71 0 11 -9 32 -20 47 -29 40 -32 69 -9 113 18
37 40 53 35 27 -2 -7 -6 -30 -11 -51 -11 -57 6 -87 49 -87 34 0 35 1 47 58 7
31 14 60 15 65 1 4 2 12 3 17 0 6 7 10 15 10 11 0 13 -7 8 -27 -18 -81 12
-143 70 -143 35 0 78 39 79 72 3 76 31 141 79 182 40 33 53 33 38 1 -6 -14
-15 -25 -19 -25 -15 0 -57 -85 -63 -127 -6 -48 13 -79 54 -88 44 -9 72 14 85
71 13 60 44 113 86 149 55 46 71 19 18 -31 -54 -51 -86 -152 -65 -211 10 -29
70 -59 96 -47 10 5 42 40 72 78 57 75 98 109 98 84 0 -8 -16 -32 -36 -53 -49
-54 -74 -106 -74 -155 0 -110 79 -147 148 -68 49 55 104 108 113 108 22 0 13
-20 -23 -56 -47 -45 -77 -104 -83 -165 -4 -47 14 -82 53 -103 41 -21 73 -3
116 64 39 61 69 80 59 38 -3 -13 -10 -28 -14 -34 -21 -26 -36 -90 -27 -115 13
-38 51 -53 88 -34 42 22 48 19 44 -17 -2 -18 -5 -98 -8 -178 -3 -80 -12 -173
-19 -208 -18 -81 -5 -67 16 18 22 92 28 159 30 376 2 170 0 194 -15 211 -10
11 -18 23 -18 27 0 4 8 6 18 4 22 -4 18 28 -10 95 -21 48 -36 61 -93 84 l-30
11 37 1 37 1 -40 61 c-45 67 -80 92 -151 109 -69 17 -74 34 -7 26 l54 -7 -60
56 c-88 81 -136 99 -199 75 -17 -6 -26 -6 -26 0 0 6 4 10 9 10 5 0 22 5 37 10
l27 11 -34 25 c-96 71 -204 64 -336 -23 -20 -14 -25 -14 -21 -3 2 8 44 34 93
59 82 41 87 45 64 54 -63 24 -194 0 -298 -54 -41 -21 -77 -37 -79 -35 -14 15
161 106 203 106 8 0 15 4 15 8 0 13 -41 9 -116 -10z m54 -127 c-6 -16 -97 -81
-102 -72 -3 4 16 24 42 44 47 36 67 45 60 28z m492 -86 c0 -2 -17 -13 -38 -24
-21 -11 -55 -36 -74 -55 -26 -26 -35 -31 -31 -17 7 29 56 71 99 86 46 17 44
16 44 10z m-1068 -186 c-15 -47 -15 -53 0 -80 15 -25 15 -29 2 -29 -16 0 -34
38 -34 72 0 24 29 88 40 88 5 0 1 -23 -8 -51z m1293 -29 c-3 -5 -12 -7 -19 -4
-7 3 -37 -4 -67 -15 -43 -17 -61 -31 -86 -68 -21 -29 -33 -40 -33 -29 0 42 32
79 92 106 44 20 124 27 113 10z m-1042 -46 c25 5 28 4 17 -9 -30 -36 -90 -9
-90 41 0 13 5 10 21 -11 18 -22 27 -26 52 -21z m937 -193 c-13 -25 -13 -98 0
-106 13 -8 13 -25 0 -25 -15 0 -32 39 -32 75 0 36 17 75 33 75 6 0 6 -7 -1
-19z m180 -168 c0 -35 -3 -44 -10 -33 -16 25 -11 80 7 80 2 0 3 -21 3 -47z"/>
<path d="M1165 1503 c-18 -135 23 -253 107 -310 44 -29 104 -53 169 -67 35 -8
53 -73 52 -184 -1 -81 -1 -83 27 -97 16 -8 31 -15 33 -15 2 0 2 30 1 68 -1 37
3 83 10 102 11 34 13 35 78 42 191 21 286 122 291 309 2 60 1 63 -23 69 -32 8
-123 -6 -179 -26 -80 -30 -146 -110 -166 -203 l-7 -33 48 50 c53 53 114 96
154 107 18 5 14 -1 -17 -22 -60 -41 -124 -114 -169 -191 -28 -48 -40 -61 -42
-46 -5 28 -108 236 -129 259 -10 12 -27 31 -38 44 l-20 24 25 -13 c14 -7 51
-40 83 -72 l58 -59 -6 48 c-10 75 -51 150 -102 187 -56 39 -117 63 -181 72
l-50 6 -7 -49z"/>
<path d="M2075 1538 c-2 -7 -6 -78 -9 -158 -5 -138 -11 -207 -21 -240 -2 -8
-7 -30 -10 -48 -26 -157 -192 -426 -326 -529 -182 -140 -267 -162 -650 -168
-82 -1 -152 -4 -155 -8 -9 -8 168 -110 191 -109 11 1 29 2 40 2 11 1 61 1 112
0 51 0 102 2 115 4 13 3 39 8 59 10 51 8 188 52 265 86 225 101 395 309 472
577 15 53 33 98 39 100 54 18 -62 -292 -161 -431 -164 -230 -475 -379 -793
-381 -35 0 -63 -3 -63 -6 0 -7 162 -47 220 -54 25 -3 90 -5 144 -5 76 0 104 4
117 16 15 14 35 21 112 39 42 10 140 71 189 118 75 73 118 129 176 231 45 77
112 232 112 256 0 4 7 10 15 14 26 9 17 -25 -35 -148 -55 -127 -91 -191 -156
-277 -49 -64 -143 -153 -185 -175 -46 -23 -34 -26 21 -4 100 39 136 64 213
144 87 90 172 210 212 301 15 33 30 67 35 76 16 30 59 224 66 294 10 97 11
187 2 206 -4 10 -19 15 -45 14 l-38 -1 -2 -49 c-4 -110 -21 -216 -35 -230 -6
-7 -7 36 -3 128 9 169 1 250 -23 245 -20 -4 -41 -58 -42 -108 0 -19 -5 -42
-10 -50 -17 -26 -28 7 -19 58 11 58 5 78 -31 97 -16 8 -30 15 -32 15 -2 0 -5
-30 -6 -67 -2 -38 -5 -79 -7 -93 -2 -14 -9 -64 -16 -113 -7 -51 -18 -92 -27
-100 -13 -10 -14 0 -8 84 4 53 9 107 12 120 3 13 8 93 11 177 6 151 6 152 -16
152 -12 0 -23 -6 -26 -12z"/>
<path d="M640 957 c-41 -4 -79 -12 -84 -17 -11 -11 28 -126 43 -123 27 6 147
15 214 16 225 2 447 -55 683 -177 l120 -63 47 40 c26 21 47 43 47 47 0 15
-196 120 -309 166 -107 44 -255 86 -342 99 -24 3 -57 9 -74 11 -52 10 -267 10
-345 1z"/>
<path d="M683 738 c-59 -11 -59 -9 -6 -90 l25 -36 106 2 c181 5 344 -26 489
-94 40 -18 72 -27 90 -24 47 8 97 24 122 38 23 13 22 14 -50 54 -78 43 -195
92 -269 113 -60 17 -59 16 -105 24 -22 4 -56 10 -77 14 -49 11 -261 10 -325
-1z"/>
<path d="M765 520 c-3 -5 5 -17 18 -27 19 -14 39 -18 98 -17 41 1 124 3 184 3
123 2 124 12 3 35 -81 16 -294 20 -303 6z"/>
</g>
</svg>
